# xmcd
#
# Track frame offsets:
#	180
#	18553
#	32798
#	44234
#	62093
#	78165
#	90971
#	107007
#	122937
#	137119
#	158834
#	166265
#	178278
#	189816
#
# Disc length: 2708 seconds
#
# Revision: 0
# Processed by: cddbd v1.5.1PL0 Copyright (c) Steve Scherf et al.
# Submitted via: FairStars CD Ripper 1.01
#
DISCID=b70a920e
DTITLE=George Higgs - Tarboro Blues
DYEAR=2001
DGENRE=Blues
TTITLE0=Reuben
TTITLE1=I Won't Be Back No More
TTITLE2=Throw This Dog A Bone
TTITLE3=My Hooks In The Water
TTITLE4=Going To The River
TTITLE5=Shotgun Blues
TTITLE6=Geraldine
TTITLE7=Jealous Man Blues
TTITLE8=Greasy Greens
TTITLE9=Black and Tan
TTITLE10=Cry Holy Unto The Lord
TTITLE11=Two Sides To Every Story
TTITLE12='Fore Day Creep
TTITLE13=I'm Worried About That
EXTD=
EXTT0=
EXTT1=
EXTT2=
EXTT3=
EXTT4=
EXTT5=
EXTT6=
EXTT7=
EXTT8=
EXTT9=
EXTT10=
EXTT11=
EXTT12=
EXTT13=
PLAYORDER=
